<?xml version="1.0" standalone="no"?>
<!DOCTYPE svg PUBLIC "-//W3C//DTD SVG 20010904//EN"
 "http://www.w3.org/TR/2001/REC-SVG-20010904/DTD/svg10.dtd">
<svg version="1.0" xmlns="http://www.w3.org/2000/svg"
 width="150.000000pt" height="67.000000pt" viewBox="0 0 150.000000 67.000000"
 preserveAspectRatio="xMidYMid meet">
<metadata>
Created by potrace 1.10, written by Peter Selinger 2001-2011
</metadata>
<g transform="translate(0.000000,67.000000) scale(0.100000,-0.100000)"
fill="#000000" stroke="none">
<path d="M268 534 c-4 -3 -12 -6 -20 -8 -23 -3 -78 -31 -78 -38 0 -5 -7 -8
-15 -8 -8 0 -25 -16 -38 -35 -13 -19 -27 -32 -32 -27 -5 4 -5 2 -1 -5 3 -6 2
-30 -3 -52 -5 -26 -5 -41 1 -41 5 0 6 -4 3 -10 -8 -12 13 -51 37 -68 10 -7 18
-18 18 -24 0 -7 -6 -6 -15 2 -10 9 -15 9 -15 1 0 -10 14 -15 34 -12 4 1 14 -3
20 -9 7 -5 16 -7 19 -3 9 9 9 23 0 22 -23 -4 -35 4 -58 38 -55 82 -10 193 96
237 47 20 129 30 174 22 l36 -7 -20 -32 c-20 -31 -22 -32 -80 -29 -75 5 -137
-21 -176 -72 -23 -30 -27 -43 -22 -73 4 -20 13 -44 22 -52 14 -15 15 -13 5 15
-26 75 50 144 158 144 55 0 63 -9 38 -42 -10 -13 -28 -18 -67 -18 -88 0 -132
-46 -101 -105 9 -16 16 -34 17 -39 0 -5 8 -10 18 -12 15 -2 16 0 6 12 -8 10
-8 14 -1 14 6 0 9 6 6 14 -4 11 5 17 33 22 47 8 83 30 83 50 0 22 30 75 39 70
4 -3 6 6 3 20 -5 26 24 64 44 57 6 -2 8 10 6 32 -3 21 -10 35 -18 35 -8 0 -14
5 -14 10 0 10 -132 14 -142 4z m62 -221 c-1 -19 -18 -28 -58 -29 -47 -1 -63
-14 -54 -47 3 -14 1 -18 -6 -13 -21 13 -14 64 10 80 23 16 108 22 108 9z"/>
<path d="M778 527 c-12 -4 -33 -21 -48 -37 l-25 -28 -28 33 c-27 33 -30 34
-103 33 -66 -1 -79 -4 -100 -24 -20 -21 -21 -27 -10 -48 14 -29 13 -105 -3
-135 -6 -11 -11 -34 -11 -51 0 -17 -4 -29 -9 -26 -5 4 -4 -5 2 -19 11 -23 12
-22 15 22 2 35 10 52 28 68 21 18 24 29 24 83 0 48 -3 62 -15 62 -25 0 -17 18
14 35 19 9 32 11 36 5 3 -5 5 -45 4 -89 -2 -85 12 -121 38 -95 16 15 18 164 3
164 -5 0 -10 5 -10 10 0 6 14 10 30 10 27 0 33 -7 62 -65 18 -36 35 -65 38
-65 3 0 18 29 34 65 25 58 31 65 57 65 16 0 29 -4 29 -10 0 -5 -4 -10 -10 -10
-14 0 -13 -136 2 -159 10 -16 14 -17 25 -6 16 16 19 165 3 165 -5 0 -10 5 -10
10 0 6 29 10 68 10 76 0 102 -16 102 -62 0 -32 -28 -57 -74 -65 -66 -10 -38
-73 33 -73 61 0 74 18 69 90 -4 57 -3 60 19 60 13 0 23 -5 23 -10 0 -6 7 -6
19 1 25 17 58 4 41 -16 -6 -7 -18 -11 -27 -8 -20 8 -33 -14 -33 -55 0 -45 16
-58 74 -60 l49 -2 -26 21 c-35 27 -37 76 -4 107 70 66 161 -35 93 -103 -24
-24 -24 -24 -3 -27 15 -2 24 -13 28 -33 6 -27 9 -24 13 10 1 6 5 16 9 23 5 6
4 12 -1 12 -6 0 -8 9 -5 20 3 11 9 17 14 14 17 -10 9 51 -11 83 -21 36 -117
90 -117 67 0 -7 5 -10 11 -7 6 3 8 2 3 -2 -11 -13 -50 -14 -64 -3 -7 5 -26 7
-43 3 -22 -5 -30 -3 -30 7 0 11 -2 11 -9 -1 -6 -9 -11 -10 -15 -2 -4 6 -22 18
-41 27 -37 17 -189 25 -227 11z"/>
<path d="M900 440 c0 -41 1 -41 33 -38 29 3 32 6 32 38 0 32 -3 35 -32 38 -32
3 -33 3 -33 -38z"/>
<path d="M626 383 c9 -70 20 -83 74 -83 56 0 70 17 69 82 l-1 53 -29 -62 c-16
-35 -33 -63 -37 -63 -5 0 -21 27 -37 61 -16 33 -33 63 -37 65 -5 3 -5 -21 -2
-53z"/>
<path d="M1197 423 c-9 -8 -9 -56 -1 -77 3 -9 17 -16 30 -16 21 0 24 5 24 38
0 48 -30 79 -53 55z"/>
<path d="M685 292 c-110 -1 -204 -7 -208 -11 -5 -5 -7 -21 -3 -35 l6 -25 395
0 395 0 0 34 0 35 -97 0 c-54 1 -141 2 -193 3 -52 1 -185 1 -295 -1z"/>
<path d="M1284 220 c-5 -5 -92 -11 -193 -12 -197 -3 -261 -17 -84 -18 59 0
115 -1 123 -1 100 -1 147 6 164 23 11 10 15 18 10 18 -6 0 -14 -4 -20 -10z"/>
<path d="M580 199 c0 -8 63 -16 79 -11 26 9 8 18 -34 18 -25 -1 -45 -4 -45 -7z"/>
<path d="M680 200 c0 -4 16 -7 35 -5 20 1 38 -2 41 -7 7 -11 24 0 24 15 0 7
-4 6 -10 -3 -5 -8 -10 -10 -10 -4 0 6 -18 11 -40 11 -22 0 -40 -3 -40 -7z"/>
<path d="M794 199 c-1 -3 2 -6 9 -6 7 0 26 -3 44 -7 30 -7 54 6 33 19 -5 3
-10 0 -10 -7 0 -8 -3 -9 -8 -3 -7 11 -61 14 -68 4z"/>
</g>
</svg>
